<?xml version="1.0" encoding="UTF-8"?>
<svg width="145px" height="145px" viewBox="0 0 145 145" version="1.1" xmlns="http://www.w3.org/2000/svg" xmlns:xlink="http://www.w3.org/1999/xlink">
    <!-- Generator: Sketch 54.1 (76490) - https://sketchapp.com -->
    <title>user</title>
    <desc>Created with Sketch.</desc>
    <g id="Page-1" stroke="none" stroke-width="1" fill="none" fill-rule="evenodd">
        <g id="4-Create-User" transform="translate(-1021.000000, -246.000000)">
            <g id="Group-4">
                <g id="Group-5" transform="translate(385.000000, 135.000000)">
                    <g id="user" transform="translate(636.000000, 111.000000)">
                        <circle id="Oval" fill="#A6A6A6" cx="73" cy="73" r="70"></circle>
                        <path d="M145,72.5 C145,32.5248182 112.475182,0 72.5,0 C32.5248182,0 0,32.5248182 0,72.5 C0,93.6146364 9.07963636,112.646545 23.5321818,125.907455 L23.4636364,125.968091 L25.8152727,127.950636 C25.9681818,128.079818 26.1342727,128.185273 26.2871818,128.311818 C27.5368182,129.347909 28.8312727,130.331273 30.1494545,131.283 C30.5765455,131.591455 31.0036364,131.899909 31.4386364,132.200455 C32.8464545,133.170636 34.2911818,134.090727 35.7675455,134.963364 C36.0891818,135.153182 36.4134545,135.337727 36.7377273,135.522273 C38.3538182,136.442364 40.0041818,137.309727 41.6940909,138.105909 C41.818,138.163909 41.9445455,138.216636 42.0684545,138.274636 C47.5758182,140.834545 53.4549091,142.714273 59.6029091,143.824182 C59.7637273,143.853182 59.9245455,143.882182 60.088,143.911182 C61.9967273,144.240727 63.9265455,144.504364 65.8800909,144.681 C66.1173636,144.702091 66.3546364,144.715273 66.5945455,144.736364 C68.5401818,144.897182 70.5069091,145 72.5,145 C74.4746364,145 76.4229091,144.897182 78.358,144.741636 C78.6031818,144.720545 78.8483636,144.707364 79.0935455,144.686273 C81.0312727,144.509636 82.9452727,144.253909 84.8355455,143.929636 C84.999,143.900636 85.1650909,143.871636 85.3285455,143.84 C91.3842727,142.753818 97.179,140.916273 102.615182,138.422273 C102.815545,138.33 103.018545,138.243 103.218909,138.148091 C104.845545,137.383545 106.435273,136.558364 107.993364,135.680455 C108.380909,135.461636 108.765818,135.240182 109.150727,135.013455 C110.569091,134.177727 111.963727,133.305091 113.318818,132.377091 C113.806545,132.044909 114.283727,131.694273 114.766182,131.346273 C115.923545,130.513182 117.059818,129.653727 118.164455,128.754727 C118.409636,128.557 118.673273,128.385636 118.913182,128.182636 L121.325455,126.168455 L121.254273,126.107818 C135.833364,112.841636 145,93.7227273 145,72.5 Z M5.57692308,72.5931093 C5.57692308,35.6395958 35.5978281,5.57692308 72.5,5.57692308 C109.402172,5.57692308 139.423077,35.6395958 139.423077,72.5931093 C139.423077,92.5061149 130.696833,110.408635 116.88181,122.692308 C116.110226,122.158806 115.333394,121.680495 114.53819,121.281026 L92.3171041,110.156339 C90.3225339,109.157666 89.0838009,107.149809 89.0838009,104.918564 L89.0838009,97.1473143 C89.59819,96.5113176 90.141448,95.7912221 90.7030769,95.0001683 C93.579457,90.9318916 95.8863348,86.4063279 97.5685973,81.5364851 C100.893756,79.9543775 103.040543,76.6377333 103.040543,72.8927111 L103.040543,63.5761472 C103.040543,61.2975968 102.205973,59.0873767 100.71267,57.3502121 L100.71267,45.0849359 C100.84914,43.7183314 101.332036,36.0232963 95.7708597,29.6738412 C90.9340271,24.1443488 83.1053394,21.3454375 72.5,21.3454375 C61.8946606,21.3454375 54.0659729,24.1443488 49.2291403,29.6712131 C43.6679638,36.0206682 44.1508597,43.7209594 44.2873303,45.0823078 L44.2873303,57.347584 C42.7966516,59.0847486 41.959457,61.2949687 41.959457,63.5735191 L41.959457,72.890083 C41.959457,75.7836054 43.2559276,78.4826495 45.4761991,80.3039129 C47.601991,88.6428289 51.9769231,94.9554908 53.5935747,97.0947526 L53.5935747,104.700433 C53.5935747,106.844951 52.4257014,108.816015 50.5439819,109.846225 L29.7925792,121.181158 C29.1312217,121.541206 28.4751131,121.9617 27.8190045,122.432127 C14.1745701,110.153711 5.57692308,92.3615702 5.57692308,72.5931093 Z" id="Shape" fill="#F5F5F5" fill-rule="nonzero"></path>
                    </g>
                </g>
            </g>
        </g>
    </g>
</svg>